# MagicaVoxel @ Ephtracy

# group
o 

# material
mtllib Rail.mtl
usemtl palette

# normals
vn -1 0 0
vn 1 0 0
vn 0 0 1
vn 0 0 -1
vn 0 -1 0
vn 0 1 0

# texcoords
vt 0.224609 0.5
vt 0.310547 0.5
vt 0.986328 0.5

# verts
v 0 2 -0.2
v 0 2 -0.3
v 0 2 -0.4
v 0 2 -0.6
v 0 2 -0.8
v 0 2 -1
v 0 2 -1.1
v 0 2 -1.2
v 0 2 -1.4
v 0 2 -1.5
v 0 2 -1.6
v 0 2.1 -0.2
v 0 2.1 -0.3
v 0 2.1 -0.4
v 0 2.1 -0.6
v 0 2.1 -0.8
v 0 2.1 -1
v 0 2.1 -1.1
v 0 2.1 -1.2
v 0 2.1 -1.4
v 0 2.1 -1.5
v 0 2.1 -1.6
v 0.1 2.1 0
v 0.1 2.1 -0.2
v 0.1 2.1 -0.3
v 0.1 2.1 -0.4
v 0.1 2.1 -0.6
v 0.1 2.1 -0.8
v 0.1 2.1 -1
v 0.1 2.1 -1.1
v 0.1 2.1 -1.2
v 0.1 2.1 -1.4
v 0.1 2.1 -1.5
v 0.1 2.1 -1.6
v 0.1 2.2 0
v 0.1 2.2 -1.6
v 1.4 2.1 0
v 1.4 2.1 -0.2
v 1.4 2.1 -0.3
v 1.4 2.1 -0.4
v 1.4 2.1 -0.6
v 1.4 2.1 -0.7
v 1.4 2.1 -0.8
v 1.4 2.1 -1
v 1.4 2.1 -1.1
v 1.4 2.1 -1.2
v 1.4 2.1 -1.4
v 1.4 2.1 -1.5
v 1.4 2.1 -1.6
v 1.4 2.2 0
v 1.4 2.2 -1.6
v 0.2 2.1 0
v 0.2 2.1 -0.2
v 0.2 2.1 -0.3
v 0.2 2.1 -0.4
v 0.2 2.1 -0.6
v 0.2 2.1 -0.7
v 0.2 2.1 -0.8
v 0.2 2.1 -1
v 0.2 2.1 -1.1
v 0.2 2.1 -1.2
v 0.2 2.1 -1.4
v 0.2 2.1 -1.5
v 0.2 2.1 -1.6
v 0.2 2.2 0
v 0.2 2.2 -1.6
v 1.5 2.1 0
v 1.5 2.1 -0.2
v 1.5 2.1 -0.3
v 1.5 2.1 -0.4
v 1.5 2.1 -0.6
v 1.5 2.1 -0.7
v 1.5 2.1 -0.8
v 1.5 2.1 -1
v 1.5 2.1 -1.1
v 1.5 2.1 -1.2
v 1.5 2.1 -1.4
v 1.5 2.1 -1.5
v 1.5 2.1 -1.6
v 1.5 2.2 0
v 1.5 2.2 -1.6
v 1.6 2 -0.2
v 1.6 2 -0.3
v 1.6 2 -0.4
v 1.6 2 -0.6
v 1.6 2 -0.7
v 1.6 2 -0.8
v 1.6 2 -1
v 1.6 2 -1.1
v 1.6 2 -1.2
v 1.6 2 -1.4
v 1.6 2 -1.5
v 1.6 2 -1.6
v 1.6 2.1 -0.2
v 1.6 2.1 -0.3
v 1.6 2.1 -0.4
v 1.6 2.1 -0.6
v 1.6 2.1 -0.7
v 1.6 2.1 -0.8
v 1.6 2.1 -1
v 1.6 2.1 -1.1
v 1.6 2.1 -1.2
v 1.6 2.1 -1.4
v 1.6 2.1 -1.5
v 1.6 2.1 -1.6
v 0.1 2.1 0
v 0.1 2.2 0
v 0.2 2.1 0
v 0.2 2.2 0
v 1.4 2.1 0
v 1.4 2.2 0
v 1.5 2.1 0
v 1.5 2.2 0
v 0 2 -0.2
v 0 2.1 -0.2
v 0.1 2.1 -0.2
v 0.2 2.1 -0.2
v 1.4 2.1 -0.2
v 1.5 2.1 -0.2
v 1.6 2 -0.2
v 1.6 2.1 -0.2
v 0 2 -0.6
v 0 2.1 -0.6
v 0.1 2 -0.6
v 0.1 2.1 -0.6
v 0.2 2.1 -0.6
v 1.4 2.1 -0.6
v 1.5 2.1 -0.6
v 1.6 2 -0.6
v 1.6 2.1 -0.6
v 0 2 -1
v 0 2.1 -1
v 0.1 2.1 -1
v 0.2 2.1 -1
v 1.4 2.1 -1
v 1.5 2.1 -1
v 1.6 2 -1
v 1.6 2.1 -1
v 0 2 -1.4
v 0 2.1 -1.4
v 0.1 2.1 -1.4
v 0.2 2.1 -1.4
v 1.4 2.1 -1.4
v 1.5 2.1 -1.4
v 1.6 2 -1.4
v 1.6 2.1 -1.4
v 0 2 -0.4
v 0 2.1 -0.4
v 0.1 2.1 -0.4
v 0.2 2.1 -0.4
v 1.4 2.1 -0.4
v 1.5 2.1 -0.4
v 1.6 2 -0.4
v 1.6 2.1 -0.4
v 0 2 -0.8
v 0 2.1 -0.8
v 0.1 2.1 -0.8
v 0.2 2.1 -0.8
v 1.4 2.1 -0.8
v 1.5 2.1 -0.8
v 1.6 2 -0.8
v 1.6 2.1 -0.8
v 0 2 -1.2
v 0 2.1 -1.2
v 0.1 2.1 -1.2
v 0.2 2.1 -1.2
v 1.4 2.1 -1.2
v 1.5 2.1 -1.2
v 1.6 2 -1.2
v 1.6 2.1 -1.2
v 0 2 -1.6
v 0 2.1 -1.6
v 0.1 2.1 -1.6
v 0.1 2.2 -1.6
v 0.2 2.1 -1.6
v 0.2 2.2 -1.6
v 1.4 2.1 -1.6
v 1.4 2.2 -1.6
v 1.5 2.1 -1.6
v 1.5 2.2 -1.6
v 1.6 2 -1.6
v 1.6 2.1 -1.6
v 0 2 -0.2
v 1.6 2 -0.2
v 0 2 -0.3
v 1.6 2 -0.3
v 0 2 -0.4
v 1.6 2 -0.4
v 0 2 -0.6
v 0.1 2 -0.6
v 1.6 2 -0.6
v 0.1 2 -0.7
v 1.6 2 -0.7
v 0 2 -0.8
v 1.6 2 -0.8
v 0 2 -1
v 1.6 2 -1
v 0 2 -1.1
v 1.6 2 -1.1
v 0 2 -1.2
v 1.6 2 -1.2
v 0 2 -1.4
v 1.6 2 -1.4
v 0 2 -1.5
v 1.6 2 -1.5
v 0 2 -1.6
v 1.6 2 -1.6
v 0.1 2.1 0
v 0.2 2.1 0
v 1.4 2.1 0
v 1.5 2.1 0
v 0.1 2.1 -0.2
v 0.2 2.1 -0.2
v 1.4 2.1 -0.2
v 1.5 2.1 -0.2
v 0.1 2.1 -0.4
v 0.2 2.1 -0.4
v 1.4 2.1 -0.4
v 1.5 2.1 -0.4
v 0.1 2.1 -0.6
v 0.2 2.1 -0.6
v 1.4 2.1 -0.6
v 1.5 2.1 -0.6
v 0.1 2.1 -0.8
v 0.2 2.1 -0.8
v 1.4 2.1 -0.8
v 1.5 2.1 -0.8
v 0.1 2.1 -1
v 0.2 2.1 -1
v 1.4 2.1 -1
v 1.5 2.1 -1
v 0.1 2.1 -1.2
v 0.2 2.1 -1.2
v 1.4 2.1 -1.2
v 1.5 2.1 -1.2
v 0.1 2.1 -1.4
v 0.2 2.1 -1.4
v 1.4 2.1 -1.4
v 1.5 2.1 -1.4
v 0 2.1 -0.2
v 0.1 2.1 -0.2
v 0.2 2.1 -0.2
v 1.4 2.1 -0.2
v 1.5 2.1 -0.2
v 1.6 2.1 -0.2
v 0 2.1 -0.3
v 0.1 2.1 -0.3
v 0.2 2.1 -0.3
v 1.4 2.1 -0.3
v 1.5 2.1 -0.3
v 1.6 2.1 -0.3
v 0 2.1 -0.4
v 0.1 2.1 -0.4
v 0.2 2.1 -0.4
v 1.4 2.1 -0.4
v 1.5 2.1 -0.4
v 1.6 2.1 -0.4
v 0 2.1 -0.6
v 0.1 2.1 -0.6
v 0.2 2.1 -0.6
v 1.4 2.1 -0.6
v 1.5 2.1 -0.6
v 1.6 2.1 -0.6
v 0.2 2.1 -0.7
v 1.4 2.1 -0.7
v 1.5 2.1 -0.7
v 1.6 2.1 -0.7
v 0 2.1 -0.8
v 0.1 2.1 -0.8
v 0.2 2.1 -0.8
v 1.4 2.1 -0.8
v 1.5 2.1 -0.8
v 1.6 2.1 -0.8
v 0 2.1 -1
v 0.1 2.1 -1
v 0.2 2.1 -1
v 1.4 2.1 -1
v 1.5 2.1 -1
v 1.6 2.1 -1
v 0 2.1 -1.1
v 0.1 2.1 -1.1
v 0.2 2.1 -1.1
v 1.4 2.1 -1.1
v 1.5 2.1 -1.1
v 1.6 2.1 -1.1
v 0 2.1 -1.2
v 0.1 2.1 -1.2
v 0.2 2.1 -1.2
v 1.4 2.1 -1.2
v 1.5 2.1 -1.2
v 1.6 2.1 -1.2
v 0 2.1 -1.4
v 0.1 2.1 -1.4
v 0.2 2.1 -1.4
v 1.4 2.1 -1.4
v 1.5 2.1 -1.4
v 1.6 2.1 -1.4
v 0 2.1 -1.5
v 0.1 2.1 -1.5
v 0.2 2.1 -1.5
v 1.4 2.1 -1.5
v 1.5 2.1 -1.5
v 1.6 2.1 -1.5
v 0 2.1 -1.6
v 0.1 2.1 -1.6
v 0.2 2.1 -1.6
v 1.4 2.1 -1.6
v 1.5 2.1 -1.6
v 1.6 2.1 -1.6
v 0.1 2.2 0
v 0.2 2.2 0
v 1.4 2.2 0
v 1.5 2.2 0
v 0.1 2.2 -1.6
v 0.2 2.2 -1.6
v 1.4 2.2 -1.6
v 1.5 2.2 -1.6

# faces
f 12/1/1 2/1/1 1/1/1
f 13/2/1 3/2/1 2/2/1
f 13/1/1 2/1/1 12/1/1
f 14/2/1 3/2/1 13/2/1
f 15/2/1 5/2/1 4/2/1
f 16/2/1 5/2/1 15/2/1
f 17/1/1 7/1/1 6/1/1
f 18/2/1 8/2/1 7/2/1
f 18/1/1 7/1/1 17/1/1
f 19/2/1 8/2/1 18/2/1
f 20/1/1 10/1/1 9/1/1
f 21/2/1 11/2/1 10/2/1
f 21/1/1 10/1/1 20/1/1
f 22/2/1 11/2/1 21/2/1
f 35/3/1 24/3/1 23/3/1
f 35/3/1 34/3/1 33/3/1
f 35/3/1 33/3/1 32/3/1
f 35/3/1 32/3/1 31/3/1
f 35/3/1 31/3/1 30/3/1
f 35/3/1 30/3/1 29/3/1
f 35/3/1 29/3/1 28/3/1
f 35/3/1 28/3/1 27/3/1
f 35/3/1 27/3/1 26/3/1
f 35/3/1 26/3/1 25/3/1
f 35/3/1 25/3/1 24/3/1
f 36/3/1 34/3/1 35/3/1
f 50/3/1 38/3/1 37/3/1
f 50/3/1 49/3/1 48/3/1
f 50/3/1 48/3/1 47/3/1
f 50/3/1 47/3/1 46/3/1
f 50/3/1 46/3/1 45/3/1
f 50/3/1 45/3/1 44/3/1
f 50/3/1 44/3/1 43/3/1
f 50/3/1 43/3/1 42/3/1
f 50/3/1 42/3/1 41/3/1
f 50/3/1 41/3/1 40/3/1
f 50/3/1 40/3/1 39/3/1
f 50/3/1 39/3/1 38/3/1
f 51/3/1 49/3/1 50/3/1
f 52/3/2 53/3/2 65/3/2
f 63/3/2 64/3/2 65/3/2
f 62/3/2 63/3/2 65/3/2
f 61/3/2 62/3/2 65/3/2
f 60/3/2 61/3/2 65/3/2
f 59/3/2 60/3/2 65/3/2
f 58/3/2 59/3/2 65/3/2
f 57/3/2 58/3/2 65/3/2
f 56/3/2 57/3/2 65/3/2
f 55/3/2 56/3/2 65/3/2
f 54/3/2 55/3/2 65/3/2
f 53/3/2 54/3/2 65/3/2
f 65/3/2 64/3/2 66/3/2
f 67/3/2 68/3/2 80/3/2
f 78/3/2 79/3/2 80/3/2
f 77/3/2 78/3/2 80/3/2
f 76/3/2 77/3/2 80/3/2
f 75/3/2 76/3/2 80/3/2
f 74/3/2 75/3/2 80/3/2
f 73/3/2 74/3/2 80/3/2
f 72/3/2 73/3/2 80/3/2
f 71/3/2 72/3/2 80/3/2
f 70/3/2 71/3/2 80/3/2
f 69/3/2 70/3/2 80/3/2
f 68/3/2 69/3/2 80/3/2
f 80/3/2 79/3/2 81/3/2
f 82/1/2 83/1/2 94/1/2
f 83/2/2 84/2/2 95/2/2
f 94/1/2 83/1/2 95/1/2
f 95/2/2 84/2/2 96/2/2
f 85/1/2 86/1/2 97/1/2
f 86/2/2 87/2/2 98/2/2
f 97/1/2 86/1/2 98/1/2
f 98/2/2 87/2/2 99/2/2
f 88/1/2 89/1/2 100/1/2
f 89/2/2 90/2/2 101/2/2
f 100/1/2 89/1/2 101/1/2
f 101/2/2 90/2/2 102/2/2
f 91/1/2 92/1/2 103/1/2
f 92/2/2 93/2/2 104/2/2
f 103/1/2 92/1/2 104/1/2
f 104/2/2 93/2/2 105/2/2
f 108/3/3 107/3/3 106/3/3
f 109/3/3 107/3/3 108/3/3
f 112/3/3 111/3/3 110/3/3
f 113/3/3 111/3/3 112/3/3
f 116/1/3 115/1/3 114/1/3
f 117/1/3 116/1/3 114/1/3
f 118/1/3 117/1/3 114/1/3
f 119/1/3 118/1/3 114/1/3
f 120/1/3 119/1/3 114/1/3
f 121/1/3 119/1/3 120/1/3
f 124/2/3 123/2/3 122/2/3
f 125/2/3 123/2/3 124/2/3
f 126/1/3 125/1/3 124/1/3
f 127/1/3 126/1/3 124/1/3
f 128/1/3 127/1/3 124/1/3
f 129/1/3 128/1/3 124/1/3
f 130/1/3 128/1/3 129/1/3
f 133/1/3 132/1/3 131/1/3
f 134/1/3 133/1/3 131/1/3
f 135/1/3 134/1/3 131/1/3
f 136/1/3 135/1/3 131/1/3
f 137/1/3 136/1/3 131/1/3
f 138/1/3 136/1/3 137/1/3
f 141/1/3 140/1/3 139/1/3
f 142/1/3 141/1/3 139/1/3
f 143/1/3 142/1/3 139/1/3
f 144/1/3 143/1/3 139/1/3
f 145/1/3 144/1/3 139/1/3
f 146/1/3 144/1/3 145/1/3
f 147/2/4 148/2/4 149/2/4
f 147/2/4 149/2/4 150/2/4
f 147/2/4 150/2/4 151/2/4
f 147/2/4 151/2/4 152/2/4
f 147/2/4 152/2/4 153/2/4
f 153/2/4 152/2/4 154/2/4
f 155/2/4 156/2/4 157/2/4
f 155/2/4 157/2/4 158/2/4
f 155/2/4 158/2/4 159/2/4
f 155/2/4 159/2/4 160/2/4
f 155/2/4 160/2/4 161/2/4
f 161/2/4 160/2/4 162/2/4
f 163/2/4 164/2/4 165/2/4
f 163/2/4 165/2/4 166/2/4
f 163/2/4 166/2/4 167/2/4
f 163/2/4 167/2/4 168/2/4
f 163/2/4 168/2/4 169/2/4
f 169/2/4 168/2/4 170/2/4
f 171/2/4 172/2/4 173/2/4
f 171/2/4 173/2/4 175/2/4
f 173/3/4 174/3/4 175/3/4
f 175/3/4 174/3/4 176/3/4
f 171/2/4 175/2/4 177/2/4
f 171/2/4 177/2/4 179/2/4
f 177/3/4 178/3/4 179/3/4
f 179/3/4 178/3/4 180/3/4
f 171/2/4 179/2/4 181/2/4
f 181/2/4 179/2/4 182/2/4
f 185/1/5 184/1/5 183/1/5
f 186/1/5 184/1/5 185/1/5
f 187/2/5 186/2/5 185/2/5
f 188/2/5 186/2/5 187/2/5
f 192/2/5 190/2/5 189/2/5
f 192/1/5 191/1/5 190/1/5
f 193/1/5 191/1/5 192/1/5
f 194/2/5 192/2/5 189/2/5
f 194/2/5 193/2/5 192/2/5
f 195/2/5 193/2/5 194/2/5
f 198/1/5 197/1/5 196/1/5
f 199/1/5 197/1/5 198/1/5
f 200/2/5 199/2/5 198/2/5
f 201/2/5 199/2/5 200/2/5
f 204/1/5 203/1/5 202/1/5
f 205/1/5 203/1/5 204/1/5
f 206/2/5 205/2/5 204/2/5
f 207/2/5 205/2/5 206/2/5
f 212/3/5 209/3/5 208/3/5
f 213/3/5 209/3/5 212/3/5
f 214/3/5 211/3/5 210/3/5
f 215/3/5 211/3/5 214/3/5
f 220/3/5 217/3/5 216/3/5
f 221/3/5 217/3/5 220/3/5
f 222/3/5 219/3/5 218/3/5
f 223/3/5 219/3/5 222/3/5
f 228/3/5 225/3/5 224/3/5
f 229/3/5 225/3/5 228/3/5
f 230/3/5 227/3/5 226/3/5
f 231/3/5 227/3/5 230/3/5
f 236/3/5 233/3/5 232/3/5
f 237/3/5 233/3/5 236/3/5
f 238/3/5 235/3/5 234/3/5
f 239/3/5 235/3/5 238/3/5
f 240/1/6 241/1/6 246/1/6
f 246/1/6 241/1/6 247/1/6
f 242/1/6 243/1/6 248/1/6
f 248/1/6 243/1/6 249/1/6
f 244/1/6 245/1/6 250/1/6
f 250/1/6 245/1/6 251/1/6
f 246/2/6 247/2/6 252/2/6
f 252/2/6 247/2/6 253/2/6
f 248/2/6 249/2/6 254/2/6
f 254/2/6 249/2/6 255/2/6
f 250/2/6 251/2/6 256/2/6
f 256/2/6 251/2/6 257/2/6
f 260/1/6 261/1/6 264/1/6
f 264/1/6 261/1/6 265/1/6
f 262/1/6 263/1/6 266/1/6
f 266/1/6 263/1/6 267/1/6
f 258/2/6 259/2/6 268/2/6
f 268/2/6 259/2/6 269/2/6
f 264/2/6 265/2/6 270/2/6
f 270/2/6 265/2/6 271/2/6
f 266/2/6 267/2/6 272/2/6
f 272/2/6 267/2/6 273/2/6
f 274/1/6 275/1/6 280/1/6
f 280/1/6 275/1/6 281/1/6
f 276/1/6 277/1/6 282/1/6
f 282/1/6 277/1/6 283/1/6
f 278/1/6 279/1/6 284/1/6
f 284/1/6 279/1/6 285/1/6
f 280/2/6 281/2/6 286/2/6
f 286/2/6 281/2/6 287/2/6
f 282/2/6 283/2/6 288/2/6
f 288/2/6 283/2/6 289/2/6
f 284/2/6 285/2/6 290/2/6
f 290/2/6 285/2/6 291/2/6
f 292/1/6 293/1/6 298/1/6
f 298/1/6 293/1/6 299/1/6
f 294/1/6 295/1/6 300/1/6
f 300/1/6 295/1/6 301/1/6
f 296/1/6 297/1/6 302/1/6
f 302/1/6 297/1/6 303/1/6
f 298/2/6 299/2/6 304/2/6
f 304/2/6 299/2/6 305/2/6
f 300/2/6 301/2/6 306/2/6
f 306/2/6 301/2/6 307/2/6
f 302/2/6 303/2/6 308/2/6
f 308/2/6 303/2/6 309/2/6
f 310/3/6 311/3/6 314/3/6
f 314/3/6 311/3/6 315/3/6
f 312/3/6 313/3/6 316/3/6
f 316/3/6 313/3/6 317/3/6
